<svg xmlns="http://www.w3.org/2000/svg" xmlns:xlink="http://www.w3.org/1999/xlink" viewBox="0 0 127.72 123.6"><defs><style>.cls-1{fill:#f2f2f2;}.cls-2{fill:red;}.cls-3{fill:url(#linear-gradient);}.cls-4{fill:#fff;}.cls-5{fill:url(#linear-gradient-2);}.cls-6{fill:#c1272d;}.cls-7{fill:url(#linear-gradient-3);}.cls-8{fill:url(#linear-gradient-4);}.cls-9{fill:#1a1a1a;}</style><linearGradient id="linear-gradient" x1="39.75" y1="-3384.29" x2="39.75" y2="-3331.72" gradientTransform="matrix(1, 0, 0, -1, 0, -3290)" gradientUnits="userSpaceOnUse"><stop offset="0" stop-color="#333"/><stop offset="1"/></linearGradient><linearGradient id="linear-gradient-2" x1="85.81" y1="-3384.27" x2="85.81" y2="-3331.7" xlink:href="#linear-gradient"/><linearGradient id="linear-gradient-3" x1="21.34" y1="-3375.95" x2="37.74" y2="-3375.95" xlink:href="#linear-gradient"/><linearGradient id="linear-gradient-4" x1="88.06" y1="4022.63" x2="104.47" y2="4022.63" gradientTransform="translate(0 -3936.68)" xlink:href="#linear-gradient"/></defs><title>Asset 5</title><g id="Layer_2" data-name="Layer 2"><g id="Layer_1-2" data-name="Layer 1"><rect class="cls-1" x="3.83" y="1.04" width="121.84" height="120.07"/><polygon class="cls-2" points="40.22 78.91 29.71 97.91 51.86 97.91 56.73 92.49 68.74 92.49 74 97.91 96.13 97.91 85.62 78.91 70.99 78.91 67.23 74.16 58.61 74.16 54.48 78.91 40.22 78.91"/><path class="cls-3" d="M51.1,90.3,40.22,45.87c0-2.29-2.78-4.15-6.19-4.15s-6.19,1.86-6.19,4.15a3.06,3.06,0,0,0,.62,1.77L43.6,91.78h.19c.14,1.36,1.76,2.45,3.92,2.45s3.94-1.18,3.94-2.63A2,2,0,0,0,51.1,90.3Z"/><ellipse class="cls-4" cx="34.23" cy="45.75" rx="3.75" ry="2.51"/><path class="cls-5" d="M97,47.67a3.06,3.06,0,0,0,.62-1.76c0-2.3-2.78-4.15-6.19-4.15s-6.19,1.85-6.19,4.15L74,91.82h.16c.14,1.36,1.75,2.45,3.92,2.45S82,93.09,82,91.64a1.31,1.31,0,0,0,0-.28Z"/><ellipse class="cls-4" cx="91.25" cy="45.75" rx="3.75" ry="2.51"/><polygon class="cls-2" points="3.83 101.17 6.08 97.09 25.59 94.39 29.71 101.17 51.86 101.17 56.73 95.73 68.74 95.73 74 101.17 96.13 101.17 98.75 94.39 123.14 97.78 123.9 101.17 123.9 120.86 3.83 120.86 3.83 101.17"/><polygon class="cls-6" points="29.81 100.72 35.09 112.32 39.61 112.32 41.87 106.21 83.72 106.21 84.86 112.32 90.51 112.32 96.54 100.72 74.3 100.72 69.02 95.84 56.96 95.84 52.05 100.72 29.81 100.72"/><polygon class="cls-4" points="62.9 76.16 64.48 79.39 68.04 79.9 65.47 82.41 66.07 85.96 62.9 84.28 59.74 85.96 60.34 82.41 57.77 79.9 61.32 79.39 62.9 76.16"/><polygon class="cls-7" points="27.9 80.46 37.74 80.46 31.18 91.44 21.34 91.44 27.9 80.46"/><polygon class="cls-8" points="94.62 91.44 104.47 91.44 97.91 80.46 88.06 80.46 94.62 91.44"/><path class="cls-9" d="M122.75,61.8c0,32.91-26.36,59.59-58.89,59.59S5,94.71,5,61.8,31.34,2.21,63.86,2.21,122.75,28.89,122.75,61.8Zm5-61.8H0V123.6H127.72Z"/></g></g></svg>