<svg id="Layer_1" data-name="Layer 1" xmlns="http://www.w3.org/2000/svg" xmlns:xlink="http://www.w3.org/1999/xlink" viewBox="0 0 57 48"><defs><style>.cls-1{fill:#f2f2f2;}.cls-2{fill:red;}.cls-3{fill:url(#linear-gradient);}.cls-4{fill:#fff;}.cls-5{fill:url(#linear-gradient-2);}.cls-6{fill:#c1272d;}.cls-7{fill:url(#linear-gradient-3);}.cls-8{fill:url(#linear-gradient-4);}.cls-9{fill:#1a1a1a;}</style><linearGradient id="linear-gradient" x1="19.04" y1="-3244.62" x2="19.04" y2="-3224.2" gradientTransform="matrix(1, 0, 0, -1, 0, -3208)" gradientUnits="userSpaceOnUse"><stop offset="0" stop-color="#333"/><stop offset="1"/></linearGradient><linearGradient id="linear-gradient-2" x1="36.92" y1="-3244.61" x2="36.92" y2="-3224.2" xlink:href="#linear-gradient"/><linearGradient id="linear-gradient-3" x1="11.89" y1="-3241.38" x2="18.26" y2="-3241.38" xlink:href="#linear-gradient"/><linearGradient id="linear-gradient-4" x1="37.8" y1="3970.06" x2="44.17" y2="3970.06" gradientTransform="translate(0 -3936.68)" xlink:href="#linear-gradient"/></defs><title>Artboard 12 copy</title><rect class="cls-1" x="5.09" y="0.4" width="47.31" height="46.63"/><polygon class="cls-2" points="19.22 30.64 15.14 38.02 23.74 38.02 25.63 35.92 30.3 35.92 32.34 38.02 40.93 38.02 36.85 30.64 31.17 30.64 29.71 28.8 26.36 28.8 24.76 30.64 19.22 30.64"/><path class="cls-3" d="M23.45,35.07,19.22,17.81c0-.89-1.08-1.61-2.4-1.61s-2.4.72-2.4,1.61a1.19,1.19,0,0,0,.24.69l5.88,17.14h.08c.05.53.68,1,1.52,1s1.53-.46,1.53-1A.79.79,0,0,0,23.45,35.07Z"/><ellipse class="cls-4" cx="16.89" cy="17.77" rx="1.45" ry="0.97"/><path class="cls-5" d="M41.27,18.51a1.19,1.19,0,0,0,.24-.69c0-.89-1.08-1.61-2.4-1.61s-2.4.72-2.4,1.61L32.34,35.66h.06c.05.53.68,1,1.52,1s1.53-.46,1.53-1a.69.69,0,0,0,0-.11Z"/><ellipse class="cls-4" cx="39.03" cy="17.77" rx="1.45" ry="0.97"/><polygon class="cls-2" points="5.09 39.29 5.96 37.71 13.54 36.66 15.14 39.29 23.74 39.29 25.63 37.18 30.3 37.18 32.34 39.29 40.93 39.29 41.95 36.66 51.42 37.97 51.71 39.29 51.71 46.94 5.09 46.94 5.09 39.29"/><polygon class="cls-6" points="15.18 39.11 17.23 43.62 18.98 43.62 19.86 41.24 36.11 41.24 36.56 43.62 38.75 43.62 41.09 39.11 32.45 39.11 30.4 37.22 25.72 37.22 23.82 39.11 15.18 39.11"/><polygon class="cls-4" points="28.03 29.57 28.64 30.83 30.02 31.03 29.02 32 29.26 33.38 28.03 32.73 26.8 33.38 27.03 32 26.03 31.03 27.41 30.83 28.03 29.57"/><polygon class="cls-7" points="14.43 31.25 18.26 31.25 15.71 35.51 11.89 35.51 14.43 31.25"/><polygon class="cls-8" points="40.35 35.51 44.17 35.51 41.62 31.25 37.8 31.25 40.35 35.51"/><path class="cls-9" d="M51.27,24A22.87,22.87,0,1,1,5.53,24a22.87,22.87,0,1,1,45.74,0ZM57.2,0H-.4V48H57.2Z"/></svg>